<mxfile host="app.diagrams.net" modified="2023-10-21T13:40:23.462Z" agent="Mozilla/5.0 (Windows NT 10.0; Win64; x64) AppleWebKit/537.36 (KHTML, like Gecko) Chrome/118.0.0.0 Safari/537.36" etag="d_X8sin96aguatJfkQIS" version="22.0.6" type="github">
  <diagram name="Page-1" id="74e2e168-ea6b-b213-b513-2b3c1d86103e">
    <mxGraphModel dx="1290" dy="565" grid="1" gridSize="10" guides="1" tooltips="1" connect="1" arrows="1" fold="1" page="1" pageScale="1" pageWidth="1100" pageHeight="850" background="none" math="0" shadow="0">
      <root>
        <mxCell id="0" />
        <mxCell id="1" parent="0" />
        <mxCell id="hn9z3IN5dp-tcWJ_dd6f-1" value="อาจารย์ปล่อยก่อนเวลา&lt;br&gt;12.30" style="rounded=0;whiteSpace=wrap;html=1;" parent="1" vertex="1">
          <mxGeometry x="80" y="40" width="120" height="60" as="geometry" />
        </mxCell>
        <mxCell id="hn9z3IN5dp-tcWJ_dd6f-2" value="นักศึกษากลุ่มอื่นลุกออกจากโต๊ะ &lt;br&gt;เมื่อรับประทานเสร็จ" style="rounded=0;whiteSpace=wrap;html=1;" parent="1" vertex="1">
          <mxGeometry x="300" y="40" width="120" height="60" as="geometry" />
        </mxCell>
        <mxCell id="hn9z3IN5dp-tcWJ_dd6f-4" value="" style="endArrow=classic;html=1;rounded=0;entryX=0;entryY=0.5;entryDx=0;entryDy=0;" parent="1" target="hn9z3IN5dp-tcWJ_dd6f-2" edge="1">
          <mxGeometry width="50" height="50" relative="1" as="geometry">
            <mxPoint x="200" y="70" as="sourcePoint" />
            <mxPoint x="250" y="20" as="targetPoint" />
          </mxGeometry>
        </mxCell>
        <mxCell id="hn9z3IN5dp-tcWJ_dd6f-5" value="ต้องการรับประทานอาหารจากร้านของ&lt;br&gt;โรงอาหารกลาง" style="rounded=0;whiteSpace=wrap;html=1;" parent="1" vertex="1">
          <mxGeometry x="80" y="190" width="120" height="60" as="geometry" />
        </mxCell>
        <mxCell id="hn9z3IN5dp-tcWJ_dd6f-7" value="" style="endArrow=classic;html=1;rounded=0;entryX=0.5;entryY=0;entryDx=0;entryDy=0;exitX=0.5;exitY=1;exitDx=0;exitDy=0;" parent="1" source="hn9z3IN5dp-tcWJ_dd6f-1" target="hn9z3IN5dp-tcWJ_dd6f-5" edge="1">
          <mxGeometry width="50" height="50" relative="1" as="geometry">
            <mxPoint x="120" y="130" as="sourcePoint" />
            <mxPoint x="160" y="120" as="targetPoint" />
          </mxGeometry>
        </mxCell>
        <mxCell id="hn9z3IN5dp-tcWJ_dd6f-8" value="if yes" style="text;html=1;strokeColor=none;fillColor=none;align=center;verticalAlign=middle;whiteSpace=wrap;rounded=0;" parent="1" vertex="1">
          <mxGeometry x="220" y="40" width="60" height="30" as="geometry" />
        </mxCell>
        <mxCell id="hn9z3IN5dp-tcWJ_dd6f-9" value="if no" style="text;html=1;strokeColor=none;fillColor=none;align=center;verticalAlign=middle;whiteSpace=wrap;rounded=0;" parent="1" vertex="1">
          <mxGeometry x="140" y="120" width="60" height="30" as="geometry" />
        </mxCell>
        <mxCell id="hn9z3IN5dp-tcWJ_dd6f-10" value="โต๊ะอาหารว่าง" style="rounded=0;whiteSpace=wrap;html=1;" parent="1" vertex="1">
          <mxGeometry x="520" y="40" width="120" height="60" as="geometry" />
        </mxCell>
        <mxCell id="hn9z3IN5dp-tcWJ_dd6f-12" value="" style="endArrow=classic;html=1;rounded=0;entryX=0;entryY=0.5;entryDx=0;entryDy=0;" parent="1" edge="1">
          <mxGeometry width="50" height="50" relative="1" as="geometry">
            <mxPoint x="420" y="69.17" as="sourcePoint" />
            <mxPoint x="520" y="69.17" as="targetPoint" />
          </mxGeometry>
        </mxCell>
        <mxCell id="hn9z3IN5dp-tcWJ_dd6f-13" value="if yes" style="text;html=1;strokeColor=none;fillColor=none;align=center;verticalAlign=middle;whiteSpace=wrap;rounded=0;" parent="1" vertex="1">
          <mxGeometry x="430" y="40" width="60" height="30" as="geometry" />
        </mxCell>
        <mxCell id="hn9z3IN5dp-tcWJ_dd6f-15" value="รับประทานอาหารที่&lt;br&gt;ร้านอื่นนอกเหนือจาก&lt;br&gt;ที่โรงอาหารกลาง" style="rounded=0;whiteSpace=wrap;html=1;fillColor=#E98FFF;" parent="1" vertex="1">
          <mxGeometry x="80" y="340" width="120" height="60" as="geometry" />
        </mxCell>
        <mxCell id="hn9z3IN5dp-tcWJ_dd6f-16" value="" style="endArrow=classic;html=1;rounded=0;entryX=0.5;entryY=0;entryDx=0;entryDy=0;exitX=0.5;exitY=1;exitDx=0;exitDy=0;" parent="1" edge="1">
          <mxGeometry width="50" height="50" relative="1" as="geometry">
            <mxPoint x="139" y="250" as="sourcePoint" />
            <mxPoint x="139" y="340" as="targetPoint" />
          </mxGeometry>
        </mxCell>
        <mxCell id="hn9z3IN5dp-tcWJ_dd6f-17" value="โทรสั่งอาหารใส่กล่อง" style="rounded=0;whiteSpace=wrap;html=1;" parent="1" vertex="1">
          <mxGeometry x="310" y="250" width="120" height="60" as="geometry" />
        </mxCell>
        <mxCell id="hn9z3IN5dp-tcWJ_dd6f-18" value="" style="endArrow=classic;html=1;rounded=0;entryX=0;entryY=0.5;entryDx=0;entryDy=0;" parent="1" target="hn9z3IN5dp-tcWJ_dd6f-17" edge="1">
          <mxGeometry width="50" height="50" relative="1" as="geometry">
            <mxPoint x="200" y="220" as="sourcePoint" />
            <mxPoint x="250" y="170" as="targetPoint" />
          </mxGeometry>
        </mxCell>
        <mxCell id="hn9z3IN5dp-tcWJ_dd6f-19" value="if no" style="text;html=1;strokeColor=none;fillColor=none;align=center;verticalAlign=middle;whiteSpace=wrap;rounded=0;" parent="1" vertex="1">
          <mxGeometry x="140" y="280" width="60" height="30" as="geometry" />
        </mxCell>
        <mxCell id="hn9z3IN5dp-tcWJ_dd6f-20" value="if yes" style="text;html=1;strokeColor=none;fillColor=none;align=center;verticalAlign=middle;whiteSpace=wrap;rounded=0;" parent="1" vertex="1">
          <mxGeometry x="230" y="210" width="60" height="30" as="geometry" />
        </mxCell>
        <mxCell id="hn9z3IN5dp-tcWJ_dd6f-21" value="ได้นั่งรับประทานอาหารที่โรงอาหารกลาง" style="rounded=0;whiteSpace=wrap;html=1;fillColor=#E98FFF;" parent="1" vertex="1">
          <mxGeometry x="720" y="40" width="120" height="60" as="geometry" />
        </mxCell>
        <mxCell id="hn9z3IN5dp-tcWJ_dd6f-22" value="" style="endArrow=classic;html=1;rounded=0;" parent="1" edge="1">
          <mxGeometry width="50" height="50" relative="1" as="geometry">
            <mxPoint x="640" y="69.17" as="sourcePoint" />
            <mxPoint x="720" y="69" as="targetPoint" />
          </mxGeometry>
        </mxCell>
        <mxCell id="hn9z3IN5dp-tcWJ_dd6f-23" value="if yes" style="text;html=1;strokeColor=none;fillColor=none;align=center;verticalAlign=middle;whiteSpace=wrap;rounded=0;" parent="1" vertex="1">
          <mxGeometry x="650" y="40" width="60" height="30" as="geometry" />
        </mxCell>
        <mxCell id="hn9z3IN5dp-tcWJ_dd6f-24" value="รอโต๊ะว่าง" style="rounded=0;whiteSpace=wrap;html=1;" parent="1" vertex="1">
          <mxGeometry x="310" y="170" width="120" height="60" as="geometry" />
        </mxCell>
        <mxCell id="hn9z3IN5dp-tcWJ_dd6f-25" value="หาโต๊ะอื่น" style="rounded=0;whiteSpace=wrap;html=1;" parent="1" vertex="1">
          <mxGeometry x="570" y="160" width="120" height="60" as="geometry" />
        </mxCell>
        <mxCell id="hn9z3IN5dp-tcWJ_dd6f-27" value="" style="endArrow=classic;html=1;rounded=0;exitX=0.5;exitY=1;exitDx=0;exitDy=0;entryX=0.419;entryY=0.011;entryDx=0;entryDy=0;entryPerimeter=0;" parent="1" source="hn9z3IN5dp-tcWJ_dd6f-2" target="hn9z3IN5dp-tcWJ_dd6f-24" edge="1">
          <mxGeometry width="50" height="50" relative="1" as="geometry">
            <mxPoint x="360" y="250" as="sourcePoint" />
            <mxPoint x="410" y="200" as="targetPoint" />
          </mxGeometry>
        </mxCell>
        <mxCell id="hn9z3IN5dp-tcWJ_dd6f-30" value="" style="endArrow=classic;html=1;rounded=0;exitX=1.025;exitY=0.344;exitDx=0;exitDy=0;exitPerimeter=0;entryX=0;entryY=0.5;entryDx=0;entryDy=0;" parent="1" source="hn9z3IN5dp-tcWJ_dd6f-24" target="hn9z3IN5dp-tcWJ_dd6f-25" edge="1">
          <mxGeometry width="50" height="50" relative="1" as="geometry">
            <mxPoint x="440" y="190" as="sourcePoint" />
            <mxPoint x="560" y="190" as="targetPoint" />
          </mxGeometry>
        </mxCell>
        <mxCell id="hn9z3IN5dp-tcWJ_dd6f-31" value="" style="endArrow=classic;html=1;rounded=0;entryX=0.086;entryY=1.022;entryDx=0;entryDy=0;entryPerimeter=0;" parent="1" target="hn9z3IN5dp-tcWJ_dd6f-21" edge="1">
          <mxGeometry width="50" height="50" relative="1" as="geometry">
            <mxPoint x="690" y="200" as="sourcePoint" />
            <mxPoint x="740" y="150" as="targetPoint" />
          </mxGeometry>
        </mxCell>
        <mxCell id="hn9z3IN5dp-tcWJ_dd6f-32" value="if no" style="text;html=1;strokeColor=none;fillColor=none;align=center;verticalAlign=middle;whiteSpace=wrap;rounded=0;" parent="1" vertex="1">
          <mxGeometry x="490" y="160" width="60" height="30" as="geometry" />
        </mxCell>
        <mxCell id="hn9z3IN5dp-tcWJ_dd6f-33" value="if no" style="text;html=1;strokeColor=none;fillColor=none;align=center;verticalAlign=middle;whiteSpace=wrap;rounded=0;" parent="1" vertex="1">
          <mxGeometry x="350" y="120" width="60" height="30" as="geometry" />
        </mxCell>
        <mxCell id="hn9z3IN5dp-tcWJ_dd6f-35" value="" style="endArrow=classic;html=1;rounded=0;entryX=0.008;entryY=0.856;entryDx=0;entryDy=0;entryPerimeter=0;" parent="1" target="hn9z3IN5dp-tcWJ_dd6f-21" edge="1">
          <mxGeometry width="50" height="50" relative="1" as="geometry">
            <mxPoint x="430" y="170" as="sourcePoint" />
            <mxPoint x="480" y="120" as="targetPoint" />
          </mxGeometry>
        </mxCell>
        <mxCell id="hn9z3IN5dp-tcWJ_dd6f-36" value="if yes" style="text;html=1;strokeColor=none;fillColor=none;align=center;verticalAlign=middle;whiteSpace=wrap;rounded=0;" parent="1" vertex="1">
          <mxGeometry x="470" y="120" width="60" height="30" as="geometry" />
        </mxCell>
        <mxCell id="hn9z3IN5dp-tcWJ_dd6f-37" value="if yes" style="text;html=1;strokeColor=none;fillColor=none;align=center;verticalAlign=middle;whiteSpace=wrap;rounded=0;" parent="1" vertex="1">
          <mxGeometry x="710" y="120" width="60" height="30" as="geometry" />
        </mxCell>
        <mxCell id="hn9z3IN5dp-tcWJ_dd6f-68" value="เดินไปโรงอาหารกลาง&lt;br&gt;สั่งอาหารใส่กล่อง" style="rounded=0;whiteSpace=wrap;html=1;" parent="1" vertex="1">
          <mxGeometry x="530" y="250" width="120" height="60" as="geometry" />
        </mxCell>
        <mxCell id="hn9z3IN5dp-tcWJ_dd6f-74" value="นำอาหารมา&lt;br&gt;รับประทานอาหาร&lt;br&gt;ที่ตึกคณะ" style="rounded=0;whiteSpace=wrap;html=1;fillColor=#E98FFF;" parent="1" vertex="1">
          <mxGeometry x="525" y="360" width="130" height="60" as="geometry" />
        </mxCell>
        <mxCell id="hn9z3IN5dp-tcWJ_dd6f-79" value="" style="endArrow=classic;html=1;rounded=0;entryX=0;entryY=0.5;entryDx=0;entryDy=0;" parent="1" target="hn9z3IN5dp-tcWJ_dd6f-68" edge="1">
          <mxGeometry width="50" height="50" relative="1" as="geometry">
            <mxPoint x="430" y="280" as="sourcePoint" />
            <mxPoint x="520" y="280" as="targetPoint" />
          </mxGeometry>
        </mxCell>
        <mxCell id="hn9z3IN5dp-tcWJ_dd6f-80" value="if no" style="text;html=1;strokeColor=none;fillColor=none;align=center;verticalAlign=middle;whiteSpace=wrap;rounded=0;" parent="1" vertex="1">
          <mxGeometry x="440" y="250" width="60" height="30" as="geometry" />
        </mxCell>
        <mxCell id="hn9z3IN5dp-tcWJ_dd6f-83" value="เดินไปโรงอาหารกลาง&lt;br&gt;ไปรับอาหาร" style="rounded=0;whiteSpace=wrap;html=1;" parent="1" vertex="1">
          <mxGeometry x="310" y="360" width="120" height="60" as="geometry" />
        </mxCell>
        <mxCell id="hn9z3IN5dp-tcWJ_dd6f-84" value="" style="endArrow=classic;html=1;rounded=0;" parent="1" target="hn9z3IN5dp-tcWJ_dd6f-83" edge="1">
          <mxGeometry width="50" height="50" relative="1" as="geometry">
            <mxPoint x="370" y="310" as="sourcePoint" />
            <mxPoint x="420" y="260" as="targetPoint" />
          </mxGeometry>
        </mxCell>
        <mxCell id="hn9z3IN5dp-tcWJ_dd6f-86" value="" style="endArrow=classic;html=1;rounded=0;exitX=0.5;exitY=1;exitDx=0;exitDy=0;entryX=0.5;entryY=0;entryDx=0;entryDy=0;" parent="1" source="hn9z3IN5dp-tcWJ_dd6f-68" target="hn9z3IN5dp-tcWJ_dd6f-74" edge="1">
          <mxGeometry width="50" height="50" relative="1" as="geometry">
            <mxPoint x="350" y="470" as="sourcePoint" />
            <mxPoint x="400" y="420" as="targetPoint" />
          </mxGeometry>
        </mxCell>
        <mxCell id="hn9z3IN5dp-tcWJ_dd6f-88" value="" style="endArrow=classic;html=1;rounded=0;" parent="1" edge="1">
          <mxGeometry width="50" height="50" relative="1" as="geometry">
            <mxPoint x="430" y="400" as="sourcePoint" />
            <mxPoint x="520" y="400" as="targetPoint" />
          </mxGeometry>
        </mxCell>
        <mxCell id="hn9z3IN5dp-tcWJ_dd6f-89" value="if yes" style="text;html=1;strokeColor=none;fillColor=none;align=center;verticalAlign=middle;whiteSpace=wrap;rounded=0;" parent="1" vertex="1">
          <mxGeometry x="370" y="320" width="60" height="30" as="geometry" />
        </mxCell>
      </root>
    </mxGraphModel>
  </diagram>
</mxfile>
